# xmcd
#
# Track frame offsets: 
#        183
#        19758
#        45253
#        74770
#        98765
#        119590
#        138283
#
# Disc length: 2122 seconds
#
# Revision: 7
# Processed by: cddbd v1.5.2PL0 Copyright (c) Steve Scherf et al.
# Submitted via: ExactAudioCopy v1.3
#
DISCID=5c084807
DTITLE=Cameo - Word Up!
DYEAR=1986
DGENRE=Funk
TTITLE0=Word Up
TTITLE1=Candy
TTITLE2=Back And Forth
TTITLE3=Don't Be Lonely
TTITLE4=She's Mine
TTITLE5=Fast, Fierce and Funny
TTITLE6=You Can Have The World
EXTD=YEAR: 1986
EXTT0=
EXTT1=
EXTT2=
EXTT3=
EXTT4=
EXTT5=
EXTT6=
PLAYORDER=
